HIERARCHY
ROOT ROOT
{
	OFFSET 0.000000 56.020000 -5.659234
	CHANNELS 6 Xposition Yposition Zposition Xrotation Yrotation Zrotation 
	JOINT C_spine0001_bind_JNT
	{
		OFFSET 0.000000 1.618999 0.000000
		CHANNELS 3 Xrotation Yrotation Zrotation
		JOINT C_spine0002_bind_JNT
		{
			OFFSET 0.000000 4.942001 0.000001
			CHANNELS 3 Xrotation Yrotation Zrotation
			JOINT C_spine0003_bind_JNT
			{
				OFFSET 0.000000 4.942001 -0.000000
				CHANNELS 3 Xrotation Yrotation Zrotation
				JOINT C_neck0001_bind_JNT
				{
					OFFSET 0.000000 17.026009 -0.000000
					CHANNELS 3 Xrotation Yrotation Zrotation
					JOINT C_neck0002_bind_JNT
					{
						OFFSET 0.000000 3.249985 0.000000
						CHANNELS 3 Xrotation Yrotation Zrotation
						JOINT C_head_bind_JNT
						{
							OFFSET 0.000000 5.278008 0.000000
							CHANNELS 3 Xrotation Yrotation Zrotation
							End Site
							{
								OFFSET 0.000000 0.000000 0.000000
							}
						}
					}
				}
				JOINT L_clavicle_bind_JNT
				{
					OFFSET 4.590000 12.067001 0.834000
					CHANNELS 3 Xrotation Yrotation Zrotation
					JOINT L_armUpper0001_bind_JNT
					{
						OFFSET 7.812635 0.512001 -3.452945
						CHANNELS 3 Xrotation Yrotation Zrotation
						JOINT L_armLower0001_bind_JNT
						{
							OFFSET 15.265892 -6.552116 -0.058157
							CHANNELS 3 Xrotation Yrotation Zrotation
							JOINT L_hand0001_bind_JNT
							{
								OFFSET 14.747667 -6.369995 5.049225
								CHANNELS 3 Xrotation Yrotation Zrotation
								End Site
								{
									OFFSET 0.000000 0.000000 0.000000
								}
							}
						}
					}
				}
				JOINT R_clavicle_bind_JNT
				{
					OFFSET -4.590000 12.067001 0.834000
					CHANNELS 3 Xrotation Yrotation Zrotation
					JOINT R_armUpper0001_bind_JNT
					{
						OFFSET -7.812635 0.512001 -3.452945
						CHANNELS 3 Xrotation Yrotation Zrotation
						JOINT R_armLower0001_bind_JNT
						{
							OFFSET -15.265890 -6.552124 -0.058160
							CHANNELS 3 Xrotation Yrotation Zrotation
							JOINT R_hand0001_bind_JNT
							{
								OFFSET -14.746784 -6.369629 5.048937
								CHANNELS 3 Xrotation Yrotation Zrotation
								End Site
								{
									OFFSET 0.000000 0.000000 0.000000
								}
							}
						}
					}
				}
			}
		}
	}
	JOINT C_pelvis0001_bind_JNT
	{
		OFFSET -0.000000 0.000000 0.000000
		CHANNELS 3 Xrotation Yrotation Zrotation
		JOINT L_legUpper0001_bind_JNT
		{
			OFFSET 6.599999 -6.027000 0.539000
			CHANNELS 3 Xrotation Yrotation Zrotation
			JOINT L_legLower0001_bind_JNT
			{
				OFFSET -0.140713 -19.187443 0.040261
				CHANNELS 3 Xrotation Yrotation Zrotation
				JOINT L_foot0001_bind_JNT
				{
					OFFSET -0.132215 -18.028637 -1.138370
					CHANNELS 3 Xrotation Yrotation Zrotation
					JOINT L_foot0002_bind_JNT
					{
						OFFSET 0.007014 -4.693133 9.886524
						CHANNELS 3 Xrotation Yrotation Zrotation
						End Site
						{
							OFFSET 0.000000 0.000000 0.000000
						}
					}
				}
			}
		}
		JOINT R_legUpper0001_bind_JNT
		{
			OFFSET -6.599999 -6.027000 0.539000
			CHANNELS 3 Xrotation Yrotation Zrotation
			JOINT R_legLower0001_bind_JNT
			{
				OFFSET 0.140710 -19.187164 0.040550
				CHANNELS 3 Xrotation Yrotation Zrotation
				JOINT R_foot0001_bind_JNT
				{
					OFFSET 0.132215 -18.028633 -1.138362
					CHANNELS 3 Xrotation Yrotation Zrotation
					JOINT R_foot0002_bind_JNT
					{
						OFFSET -0.007014 -4.693128 9.886505
						CHANNELS 3 Xrotation Yrotation Zrotation
						End Site
						{
							OFFSET 0.000000 0.000000 0.000000
						}
					}
				}
			}
		}
	}
}
MOTION
Frames: 10
Frame Time: 0.033333
0.000000 47.899300 0.000000 -0.000620 18.068531 -0.000745 -3.357867 -18.927151 -1.776225 13.304742 0.346528 1.635583 5.311495 1.049186 0.512008 -1.461194 0.384643 -0.108665 0.223992 -6.379756 -0.139615 4.722646 0.040844 2.443531 -0.243230 10.783829 -0.931266 -1.779601 1.142518 -58.382111 21.443834 -11.656107 2.977532 8.998386 -35.672691 -19.618885 1.588970 -11.181548 2.433809 -2.258149 -2.381660 56.695831 14.018730 4.343761 -0.428729 6.232584 29.239847 21.144947 -1.279065 -18.842590 -0.771028 -10.024706 -0.667517 5.841228 15.263891 4.928960 -1.061384 -2.476978 11.336582 -5.359373 -1.066745 -0.010212 -0.052830 -10.338195 -1.226921 1.445891 19.731413 -9.382486 4.103864 -8.357995 1.603101 -1.602166 -0.053781 -0.550294 -0.187896 
0.123688 47.943035 0.205766 0.004829 18.237772 -0.015165 -3.874247 -18.951605 -1.731243 13.532985 0.879916 1.585206 5.326305 1.298648 0.550334 -1.540965 0.005329 -0.083052 0.237335 -6.714668 -0.153769 6.580038 -0.062643 2.820350 -0.416632 10.583868 -0.341091 -1.647576 0.925926 -58.946865 21.530655 -10.710051 3.228603 8.151181 -36.223103 -21.131716 1.292273 -11.306451 2.330081 -2.155726 -2.673220 57.217361 14.753675 5.646159 -1.163183 5.667920 28.271139 20.811571 -1.540198 -18.965439 -0.884259 -10.118813 -0.885208 5.769222 16.606480 5.132156 -1.113907 -2.978062 10.067663 -5.055034 -1.652058 0.086412 -0.239287 -10.156070 -0.927470 1.430181 20.239405 -8.969537 3.969395 -8.958751 -0.017260 -1.229747 -0.021608 0.068448 -0.281103 
-0.162289 48.017284 0.361117 0.001166 18.603857 -0.016623 -3.899506 -19.472601 -1.661241 13.743589 1.123399 1.765856 5.374337 1.624354 0.491830 -1.385966 -0.007704 0.018419 0.136023 -7.048157 -0.226198 6.638537 0.037534 2.880017 -0.546347 10.536110 -0.430389 -1.677671 0.982512 -58.959938 21.910961 -11.470415 3.385416 8.425460 -35.823643 -20.883553 1.280045 -11.589643 2.575979 -2.440408 -2.560439 57.206120 15.286256 5.551360 -1.750069 6.226604 28.575962 20.601126 -1.463498 -19.447603 -0.686292 -10.785978 -0.601484 5.707572 16.401285 5.433289 -1.019602 -2.549684 9.833989 -5.094888 -1.215689 0.023209 -0.350613 -9.876260 -0.809428 1.752306 20.205641 -8.888340 3.987457 -9.128148 -0.454642 -1.625757 -0.048157 -0.074226 -0.279244 
-0.257249 48.044010 0.469981 0.004715 18.572140 -0.016429 -3.820956 -19.291315 -1.474358 13.811454 1.245802 1.707309 5.286729 1.696480 0.607145 -1.384530 0.009156 -0.007935 0.112958 -7.267214 -0.279412 6.756350 0.124537 2.817312 -0.399636 10.524291 -0.499569 -1.849576 0.812135 -59.089752 22.126585 -11.536393 3.545333 8.693282 -35.810799 -20.813585 1.184659 -11.487372 2.339485 -2.529738 -2.378100 57.310947 15.365123 5.546658 -1.984697 6.396399 28.831947 20.477213 -1.396583 -19.243462 -0.602206 -10.977514 -0.606314 5.813620 16.255373 5.494450 -1.173147 -2.445741 9.734913 -5.058531 -1.208257 0.075982 -0.378545 -9.822227 -0.765270 1.758204 20.108311 -8.806533 3.874553 -9.097545 -0.550403 -1.568927 -0.011531 -0.100530 -0.294049 
-0.269210 48.043976 0.619923 0.005229 18.778358 -0.022364 -3.666061 -19.291998 -1.304296 13.764814 1.320465 1.790841 5.339729 1.828886 0.585060 -1.501115 0.028424 0.147601 0.193664 -7.293970 -0.330468 6.745434 0.008619 2.587777 -0.524938 10.476439 -0.501639 -1.634097 0.894318 -59.085457 22.277254 -12.032285 3.496349 9.058117 -35.712704 -20.740887 1.065823 -11.392005 2.262076 -2.670617 -2.134370 57.285053 15.425686 5.738763 -2.169523 6.500108 28.921646 20.686304 -1.382247 -19.263706 -0.420919 -11.318038 -0.672794 5.686679 16.257065 5.587174 -1.123286 -2.135812 9.660233 -5.102732 -1.164864 -0.107154 -0.418539 -9.444445 -0.649248 1.626996 19.773081 -8.856037 3.864433 -9.022838 -0.632754 -1.576531 -0.118317 -0.093087 -0.257961 
-0.201966 48.074242 0.827225 0.010843 18.887026 -0.016128 -3.772591 -19.243053 -1.199584 13.853868 1.467365 1.696584 5.335475 1.877981 0.701515 -1.504287 0.103339 0.129795 0.164698 -7.494620 -0.361284 6.827113 -0.081920 2.570738 -0.540175 10.515240 -0.468521 -1.560719 0.941142 -59.112148 22.227184 -12.395641 3.230373 9.290181 -35.688374 -20.768616 1.092962 -11.309820 2.161242 -2.895710 -1.876049 57.314346 15.646014 5.825171 -2.495151 6.624705 28.933039 20.978510 -1.520223 -19.255054 -0.358091 -11.450596 -0.576194 5.404734 16.157171 5.465487 -1.080776 -1.940107 9.507819 -4.947664 -1.027729 0.064884 -0.410364 -9.026223 -0.457437 1.437409 19.657627 -8.852336 3.787400 -9.053747 -0.975665 -1.495943 -0.154386 0.015489 -0.213395 
-0.083428 48.062862 1.123961 0.007113 18.976999 -0.017254 -3.710748 -19.200516 -1.138074 13.706261 1.538308 1.725286 5.400311 2.040659 0.666181 -1.477078 0.108596 0.257042 0.183302 -7.668070 -0.522522 6.933794 -0.073522 2.514461 -0.499032 10.526040 -0.500850 -1.332583 1.135330 -58.995468 22.133713 -12.886189 3.089237 9.588184 -35.742474 -20.677658 1.187969 -11.207449 2.152021 -3.038836 -1.673858 57.200363 15.677396 5.982039 -2.770519 6.797572 29.041143 21.467438 -1.461981 -19.140121 -0.211664 -11.449633 -0.683356 4.951476 15.949430 5.595989 -1.000642 -1.893879 9.296336 -4.620964 -0.788269 0.134263 -0.412507 -8.637731 -0.416039 1.199689 19.566603 -8.772875 3.550272 -9.109570 -1.185980 -1.251022 -0.365934 -0.094518 -0.193823 
0.061736 48.097870 1.452417 0.007449 19.042835 -0.021740 -3.699839 -19.170918 -1.115916 13.704003 1.649277 1.728835 5.308778 2.109965 0.688623 -1.393923 0.137478 0.128707 0.205250 -7.852939 -0.598113 6.977469 -0.040595 2.647702 -0.450748 10.589500 -0.488867 -1.141123 1.308898 -58.918610 22.164618 -13.403632 2.823057 9.774557 -35.765896 -20.483759 1.227078 -11.112119 2.052189 -3.029298 -1.427953 57.183640 15.815306 6.054682 -2.933969 7.184229 29.182320 21.509525 -1.432361 -19.111816 -0.129646 -11.480928 -0.681741 4.716567 15.820406 5.502884 -0.968947 -1.698914 9.193107 -4.375304 -0.626307 0.141649 -0.396934 -8.235641 -0.331648 1.027176 19.673502 -8.575112 3.459410 -9.566397 -1.465942 -1.045540 -0.403239 -0.095205 -0.180414 
0.275618 48.106853 1.753152 0.009599 18.900972 -0.025433 -3.625044 -18.947058 -0.964669 13.745614 1.627993 1.554716 5.303883 2.137169 0.541050 -1.537345 0.198353 0.096567 0.237571 -7.888990 -0.669586 6.970049 -0.084054 2.853979 -0.428696 10.765579 -0.423711 -1.106057 1.369951 -58.789677 21.986439 -13.686934 2.710856 10.011379 -35.892944 -20.347404 1.272353 -10.920880 2.089165 -3.104532 -1.363470 57.113659 16.000593 6.173899 -3.086177 7.441045 29.503212 21.622629 -1.379767 -18.858068 -0.047033 -11.506288 -0.653250 4.170410 16.160971 5.363481 -0.924945 -2.108492 9.256405 -3.794389 -0.524808 0.163016 -0.413873 -8.161860 -0.370514 0.655838 20.056381 -8.156859 3.288766 -9.904810 -1.678649 -0.686884 -0.512325 -0.003693 -0.137026 
0.534873 48.098614 2.125705 0.006191 18.959953 -0.023967 -3.749284 -19.014570 -0.893097 13.808688 1.753078 1.309019 5.304595 2.218410 0.438612 -1.540645 0.113790 0.027831 0.199319 -7.839039 -0.722255 7.082613 -0.015863 3.016124 -0.313849 10.831108 -0.292911 -1.189349 1.498890 -58.898705 21.923639 -13.717514 2.642320 10.247549 -35.888412 -20.188646 1.352187 -10.951608 2.027957 -3.118724 -1.259429 57.173504 16.233948 6.342166 -3.103635 7.338611 29.487394 21.695166 -1.400738 -18.870066 0.022851 -11.269434 -0.436034 3.743035 16.189686 4.968739 -0.733630 -2.359859 9.398273 -3.496304 -0.437965 0.120511 -0.340550 -7.889592 -0.422195 0.285310 20.465607 -7.695583 3.092834 -10.424317 -1.800914 -0.269846 -0.583526 -0.109889 -0.097908 
